HIERARCHY
ROOT pelvis
{
	OFFSET 0.000000 0.905597 -0.000000
	CHANNELS 6 Xposition Yposition Zposition Xrotation Yrotation Zrotation
	JOINT spine
	{
		OFFSET 0.000000 0.000000 0.000000
		CHANNELS 6 Xposition Yposition Zposition Xrotation Yrotation Zrotation
		JOINT spine.001
		{
			OFFSET 0.000000 0.286021 0.014990
			CHANNELS 3 Xrotation Yrotation Zrotation
			JOINT neck
			{
				OFFSET 0.000000 0.284278 -0.034905
				CHANNELS 6 Xposition Yposition Zposition Xrotation Yrotation Zrotation
				JOINT face
				{
					OFFSET 0.000000 0.209740 -0.003661
					CHANNELS 6 Xposition Yposition Zposition Xrotation Yrotation Zrotation
					End Site
					{
						OFFSET 0.000000 -0.008906 0.029649
					}
				}
			}
			JOINT shoulder.L
			{
				OFFSET 0.000000 0.284278 -0.034905
				CHANNELS 6 Xposition Yposition Zposition Yrotation Xrotation Zrotation
				JOINT upper_arm.L
				{
					OFFSET 0.176212 0.000000 0.000000
					CHANNELS 6 Xposition Yposition Zposition Xrotation Yrotation Zrotation
					JOINT forearm.L
					{
						OFFSET 0.321055 0.001092 -0.000132
						CHANNELS 6 Xposition Yposition Zposition Xrotation Yrotation Zrotation
						End Site
						{
							OFFSET 0.264216 -0.001504 0.004491
						}
					}
				}
			}
			JOINT shoulder.R
			{
				OFFSET 0.000000 0.284278 -0.034905
				CHANNELS 6 Xposition Yposition Zposition Yrotation Xrotation Zrotation
				JOINT upper_arm.R
				{
					OFFSET -0.176212 0.000000 0.000000
					CHANNELS 6 Xposition Yposition Zposition Xrotation Yrotation Zrotation
					JOINT forearm.R
					{
						OFFSET -0.306861 0.001092 -0.000132
						CHANNELS 6 Xposition Yposition Zposition Xrotation Yrotation Zrotation
						End Site
						{
							OFFSET -0.266230 -0.001504 0.004526
						}
					}
				}
			}
		}
	}
	JOINT pelvis.L
	{
		OFFSET 0.000000 0.000000 0.000000
		CHANNELS 6 Xposition Yposition Zposition Yrotation Xrotation Zrotation
		End Site
		{
			OFFSET 0.118829 0.000000 0.000000
		}
	}
	JOINT pelvis.R
	{
		OFFSET 0.000000 0.000000 0.000000
		CHANNELS 6 Xposition Yposition Zposition Yrotation Xrotation Zrotation
		End Site
		{
			OFFSET -0.118829 0.000000 0.000000
		}
	}
	JOINT thigh.L
	{
		OFFSET 0.118829 0.000000 0.000000
		CHANNELS 6 Xposition Yposition Zposition Xrotation Yrotation Zrotation
		JOINT shin.L
		{
			OFFSET 0.023045 -0.439733 0.000000
			CHANNELS 6 Xposition Yposition Zposition Xrotation Yrotation Zrotation
			JOINT foot.L
			{
				OFFSET 0.019808 -0.377965 0.000000
				CHANNELS 6 Xposition Yposition Zposition Xrotation Yrotation Zrotation
				End Site
				{
					OFFSET 0.018349 -0.078563 0.187092
				}
			}
		}
	}
	JOINT thigh.R
	{
		OFFSET -0.118829 0.000000 0.000000
		CHANNELS 6 Xposition Yposition Zposition Xrotation Yrotation Zrotation
		JOINT shin.R
		{
			OFFSET -0.023282 -0.444255 0.000000
			CHANNELS 6 Xposition Yposition Zposition Xrotation Yrotation Zrotation
			JOINT foot.R
			{
				OFFSET -0.020276 -0.386894 0.000000
				CHANNELS 6 Xposition Yposition Zposition Xrotation Yrotation Zrotation
				End Site
				{
					OFFSET -0.018548 -0.079415 0.189120
				}
			}
		}
	}
}
MOTION
Frames: 4
Frame Time: 0.041667
0.021167 -0.023692 0.043182 -0.000000 -0.050067 -0.000000 -0.000000 -0.000000 -0.000000 -6.646564 0.302144 -2.726171 10.000144 -0.347015 0.042618 0.000000 0.284278 -0.034905 13.231186 -1.470560 1.229291 0.000000 0.209740 -0.003661 11.509710 -0.000001 0.000000 -0.000000 0.284278 -0.034905 0.278400 -0.005506 2.267991 0.176212 -0.000000 -0.000000 -29.157118 -31.704181 -85.288893 0.321055 0.001092 -0.000132 -39.827502 -34.628072 -100.769449 -0.000000 0.284278 -0.034905 0.271610 -0.005243 2.212716 -0.176212 -0.000000 0.000000 -28.627071 31.619640 84.371435 -0.306861 0.001092 -0.000132 -30.654330 34.313849 85.456943 0.000000 -0.000000 -0.000000 -0.000036 -0.000000 -2.151344 0.000000 0.000000 -0.000000 -0.000000 0.000000 -2.151344 0.118745 -0.004461 0.000000 6.139384 0.107825 -3.989527 0.023045 -0.439733 0.000000 3.074418 0.221161 2.227022 0.019808 -0.377965 0.000000 -10.173751 -1.962391 0.001691 -0.118745 0.004461 -0.000000 7.537425 -0.328552 1.015321 -0.023282 -0.444255 0.000000 0.114691 -0.006824 -0.808267 -0.020276 -0.386894 0.000000 -12.768776 1.680953 -0.382019 
0.020874 -0.023718 0.044201 -0.000000 -0.111395 -0.000000 -0.000000 -0.000000 -0.000000 -6.729964 0.307040 -2.752035 10.000053 -0.336289 0.041266 0.000000 0.284278 -0.034905 13.377205 -1.560206 1.270970 0.000000 0.209740 -0.003661 11.414371 -0.000002 -0.000000 -0.000000 0.284278 -0.034905 0.277130 -0.005456 2.257329 0.176212 -0.000000 -0.000000 -28.970432 -31.604204 -85.095537 0.321055 0.001092 -0.000132 -40.260653 -35.046278 -100.666887 -0.000000 0.284278 -0.034905 0.270297 -0.005194 2.202056 -0.176212 -0.000000 0.000000 -28.587627 31.528368 84.462761 -0.306861 0.001092 -0.000132 -30.680947 34.395917 85.354668 -0.000000 0.000000 -0.000000 0.000032 0.000000 -2.144469 0.000000 0.000000 -0.000000 -0.000000 0.000000 -2.144469 0.118746 -0.004447 -0.000000 6.194748 0.112075 -3.929074 0.023045 -0.439733 0.000000 3.100710 0.220959 2.149988 0.019808 -0.377965 0.000000 -10.268884 -1.931712 0.026063 -0.118746 0.004447 -0.000000 7.523678 -0.329854 0.986486 -0.023282 -0.444255 0.000000 0.290176 -0.017109 -0.747273 -0.020276 -0.386894 0.000000 -13.136236 1.718401 -0.394168 
0.020636 -0.023696 0.045514 -0.000000 -0.222106 -0.000000 -0.000000 0.000000 -0.000000 -6.834745 0.310896 -2.763657 10.000032 -0.301231 0.036979 0.000000 0.284278 -0.034905 13.504124 -1.557900 1.270857 -0.000000 0.209739 -0.003661 11.366442 -0.000001 0.000000 -0.000000 0.284278 -0.034905 0.274542 -0.005362 2.237505 0.176212 -0.000000 0.000000 -28.751688 -31.483702 -84.873358 0.321055 0.001092 -0.000132 -40.557889 -35.287749 -100.679966 -0.000000 0.284278 -0.034905 0.267813 -0.005105 2.182224 -0.176212 -0.000000 0.000000 -28.526562 31.415902 84.549689 -0.306861 0.001092 -0.000132 -30.718550 34.548804 85.141832 0.000000 -0.000000 -0.000000 -0.000036 -0.000000 -2.106734 0.000000 0.000000 -0.000000 -0.000000 0.000000 -2.106710 0.118749 -0.004368 -0.000000 6.309013 0.114831 -3.916549 0.023045 -0.439733 0.000000 3.067448 0.218146 2.133564 0.019808 -0.377965 0.000000 -10.370836 -1.849615 0.078428 -0.118749 0.004368 -0.000000 7.486295 -0.330311 0.954447 -0.023282 -0.444255 0.000000 0.531221 -0.031047 -0.689219 -0.020276 -0.386894 0.000000 -13.435694 1.815728 -0.366067 
0.020614 -0.023486 0.047179 -0.000000 -0.513089 -0.000000 0.000000 -0.000000 -0.000000 -6.964750 0.310982 -2.736467 10.000102 -0.163231 0.020078 0.000000 0.284278 -0.034905 13.586931 -1.453711 1.203870 -0.000000 0.209740 -0.003661 11.374691 0.000000 -0.000000 -0.000000 0.284278 -0.034905 0.268681 -0.005135 2.189261 0.176212 -0.000000 0.000000 -28.498541 -31.349055 -84.604139 0.321055 0.001092 -0.000132 -40.548371 -35.169532 -100.878923 -0.000000 0.284278 -0.034905 0.261920 -0.004879 2.133989 -0.176212 -0.000000 0.000000 -28.539037 31.373094 84.657230 -0.306861 0.001092 -0.000132 -30.785428 34.842301 84.725778 -0.000000 0.000000 -0.000000 0.000063 0.000001 -2.046920 -0.000000 0.000000 -0.000000 0.000000 0.000000 -2.046891 0.118753 -0.004244 0.000000 6.488316 0.114226 -3.984927 0.023045 -0.439733 0.000000 3.006297 0.214821 2.172443 0.019808 -0.377965 0.000000 -10.502908 -1.599938 0.222955 -0.118753 0.004244 -0.000000 7.435668 -0.331481 0.902015 -0.023282 -0.444255 0.000000 0.776627 -0.045081 -0.643924 -0.020276 -0.386894 0.000000 -13.660501 2.081944 -0.234640 
